HIERARCHY
ROOT Pelvis
{
	OFFSET 0.000000 0.000000 0.000000
	CHANNELS 6 Xposition Yposition Zposition Xrotation Yrotation Zrotation
	JOINT LeftUpLeg_virtual
	{
		OFFSET 0.000000 0.000000 0.000000
		CHANNELS 3 Xrotation Yrotation Zrotation
		JOINT LeftUpLeg
		{
			OFFSET 18.735201 -5.666702 -4.541200
			CHANNELS 3 Xrotation Yrotation Zrotation
			JOINT LeftLeg
			{
				OFFSET -0.021200 -31.938179 0.493100
				CHANNELS 3 Xrotation Yrotation Zrotation
				JOINT LeftFoot
				{
					OFFSET 0.021200 -31.938179 -4.336299
					CHANNELS 3 Xrotation Yrotation Zrotation
					JOINT LeftToeBase
					{
						OFFSET 0.943001 -26.722000 15.023500
						CHANNELS 3 Xrotation Yrotation Zrotation
						End Site
						{
							OFFSET 0 0 0
						}
					}
				}
			}
		}
	}
	JOINT RightUpLeg_virtual
	{
		OFFSET 0.000000 0.000000 0.000000
		CHANNELS 3 Xrotation Yrotation Zrotation
		JOINT RightUpLeg
		{
			OFFSET -18.735201 -5.666702 -4.541200
			CHANNELS 3 Xrotation Yrotation Zrotation
			JOINT RightLeg
			{
				OFFSET 0.018946 -31.938133 0.493100
				CHANNELS 3 Xrotation Yrotation Zrotation
				JOINT RightFoot
				{
					OFFSET -0.018946 -31.938126 -4.336299
					CHANNELS 3 Xrotation Yrotation Zrotation
					JOINT RightToeBase
					{
						OFFSET -0.943001 -26.722004 15.023500
						CHANNELS 3 Xrotation Yrotation Zrotation
						End Site
						{
							OFFSET 0 0 0
						}
					}
				}
			}
		}
	}
	JOINT Hips_virtual
	{
		OFFSET 0.000000 0.000000 0.000000
		CHANNELS 3 Xrotation Yrotation Zrotation
		JOINT Hips
		{
			OFFSET -0.000000 -0.000000 -0.000000
			CHANNELS 3 Xrotation Yrotation Zrotation
			JOINT Spine
			{
				OFFSET 0.000000 10.199997 -0.299500
				CHANNELS 3 Xrotation Yrotation Zrotation
				JOINT Spine1
				{
					OFFSET 0.000000 11.900002 -1.516600
					CHANNELS 3 Xrotation Yrotation Zrotation
					JOINT Spine2
					{
						OFFSET 0.000000 13.600006 -2.842500
						CHANNELS 3 Xrotation Yrotation Zrotation
						JOINT Neck_virtual
						{
							OFFSET 0.000000 0.000000 0.000000
							CHANNELS 3 Xrotation Yrotation Zrotation
							JOINT Neck
							{
								OFFSET 0.000000 9.624100 -2.890100
								CHANNELS 3 Xrotation Yrotation Zrotation
								JOINT Head
								{
									OFFSET 0.000000 14.068802 -1.351900
									CHANNELS 3 Xrotation Yrotation Zrotation
									End Site
									{
										OFFSET 0 0 0
									}
								}
							}
						}
						JOINT LeftShoulder_virtual
						{
							OFFSET 0.000000 0.000000 0.000000
							CHANNELS 3 Xrotation Yrotation Zrotation
							JOINT LeftShoulder
							{
								OFFSET 15.263000 10.923401 -0.547700
								CHANNELS 3 Xrotation Yrotation Zrotation
								JOINT LeftArm
								{
									OFFSET 25.438599 -2.830597 -13.032500
									CHANNELS 3 Xrotation Yrotation Zrotation
									JOINT LeftForeArm
									{
										OFFSET 29.960503 0.000000 0.000000
										CHANNELS 3 Xrotation Yrotation Zrotation
										JOINT LeftHand
										{
											OFFSET 27.849251 0.000000 0.000000
											CHANNELS 3 Xrotation Yrotation Zrotation
											End Site
											{
												OFFSET 0 0 0
											}
										}
									}
								}
							}
						}
						JOINT RightShoulder_virtual
						{
							OFFSET 0.000000 0.000000 0.000000
							CHANNELS 3 Xrotation Yrotation Zrotation
							JOINT RightShoulder
							{
								OFFSET -15.263000 10.923401 -0.547700
								CHANNELS 3 Xrotation Yrotation Zrotation
								JOINT RightArm
								{
									OFFSET -25.438599 -2.830597 -13.032500
									CHANNELS 3 Xrotation Yrotation Zrotation
									JOINT RightForeArm
									{
										OFFSET -29.960503 0.000000 0.000000
										CHANNELS 3 Xrotation Yrotation Zrotation
										JOINT RightHand
										{
											OFFSET -27.849251 0.000000 0.000000
											CHANNELS 3 Xrotation Yrotation Zrotation
											End Site
											{
												OFFSET 0 0 0
											}
										}
									}
								}
							}
						}
					}
				}
			}
		}
	}
}
MOTION
Frames: 13
Frame Time: 0.03333333
0.506953 75.089684 2.461664 0.000000 0.000000 0.000000 7.472469 1.999118 -3.196637 33.541270 18.724112 4.556559 11.592045 -5.651767 4.862746 -43.418587 -2.008046 -0.925337 0.000000 0.000000 0.000000 7.472469 1.999118 -3.196637 -72.200482 -3.519037 -0.246047 77.141714 -2.797946 -0.207618 -12.532354 3.038425 -5.251238 0.000000 0.000000 0.000000 7.472469 1.999118 -3.196637 0.000000 0.000000 0.000000 1.541827 -1.688468 1.643263 4.463941 -2.897045 3.069452 0.000000 0.000000 0.000000 4.470553 -2.960905 2.997962 -2.661838 0.920827 -0.347962 0.000000 0.000000 0.000000 4.470553 -2.960905 2.997962 -0.863853 7.389833 -0.025976 -11.563467 10.383922 -66.345514 -179.999978 -64.819909 -179.999964 0.000000 0.000000 0.000000 4.470553 -2.960905 2.997962 0.518558 -7.917611 14.973078 -19.108965 0.823921 54.259993 -179.999923 65.206136 179.999937 0.000000 0.000000 0.000000 
0.631363 77.597839 3.572548 0.000000 0.000000 0.000000 7.388555 3.740453 -2.239337 28.675648 16.584990 4.300646 15.903774 -4.496927 6.765474 -37.174172 -1.836833 -0.937699 0.000000 0.000000 0.000000 7.388555 3.740453 -2.239337 -67.623579 -3.178268 -1.364275 73.530313 -3.590018 -0.395130 -13.385589 3.149659 -5.688152 0.000000 0.000000 0.000000 7.388555 3.740453 -2.239337 0.000000 0.000000 0.000000 1.679695 -1.786193 1.479202 3.785097 -3.090957 2.685692 0.000000 0.000000 0.000000 3.791149 -3.134330 2.617750 -2.461188 0.861942 -0.452176 0.000000 0.000000 0.000000 3.791149 -3.134330 2.617750 -0.699220 6.301896 -0.123048 -14.747391 8.597206 -65.355089 -179.999882 -66.227638 -179.999896 0.000000 0.000000 0.000000 3.791149 -3.134330 2.617750 0.413489 -7.788723 13.845025 -20.755797 2.647588 54.652483 -179.999896 65.289710 179.999896 0.000000 0.000000 0.000000 
0.855844 80.247856 4.317116 0.000000 0.000000 0.000000 7.041922 5.561216 -1.476383 20.166424 14.207279 3.920998 25.035083 -1.411875 10.249270 -29.391643 -0.965886 -2.542188 0.000000 0.000000 0.000000 7.041922 5.561216 -1.476383 -62.624789 -3.067058 -2.359419 68.732603 -4.451018 -0.602663 -13.224712 3.194565 -6.147801 0.000000 0.000000 0.000000 7.041922 5.561216 -1.476383 0.000000 0.000000 0.000000 2.307059 -1.831023 1.798539 3.099219 -3.162404 2.168580 0.000000 0.000000 0.000000 3.091625 -3.180354 2.120447 -2.264440 0.783676 -0.581132 0.000000 0.000000 0.000000 3.091625 -3.180354 2.120447 -0.472603 4.837150 -0.286772 -18.246978 6.118550 -64.201114 -179.999950 -68.040726 -179.999978 0.000000 0.000000 0.000000 3.091625 -3.180354 2.120447 0.323427 -7.582997 12.788909 -22.735699 4.589335 55.000529 -179.999868 65.453136 179.999855 0.000000 0.000000 0.000000 
1.188246 82.611504 4.509903 0.000000 0.000000 0.000000 6.504325 7.342953 -0.926803 8.631861 11.639302 3.602416 35.566045 3.151864 14.020880 -15.908376 0.024263 -5.905639 0.000000 0.000000 0.000000 6.504325 7.342953 -0.926803 -58.111980 -3.137004 -2.972720 63.692218 -5.554294 -0.931861 -12.208562 3.267313 -6.906247 0.000000 0.000000 0.000000 6.504325 7.342953 -0.926803 0.000000 0.000000 0.000000 3.201861 -1.793102 2.341727 2.446617 -3.124233 1.713961 0.000000 0.000000 0.000000 2.423727 -3.115747 1.695900 -2.025554 0.705507 -0.745314 0.000000 0.000000 0.000000 2.423727 -3.115747 1.695900 -0.203421 3.122969 -0.566954 -21.904193 3.029753 -63.035051 -179.999827 -70.309653 -179.999814 0.000000 0.000000 0.000000 2.423727 -3.115747 1.695900 0.250418 -6.988277 11.672798 -25.083291 6.274636 55.058783 -179.999991 65.778048 179.999991 0.000000 0.000000 0.000000 
1.647761 84.301750 4.161633 0.000000 0.000000 0.000000 5.837799 9.071235 -0.701534 -0.848489 8.972528 4.910497 40.018662 5.535421 13.309249 4.132471 -1.081638 -5.897432 0.000000 0.000000 0.000000 5.837799 9.071235 -0.701534 -55.124503 -2.957236 -3.512136 59.614765 -6.748980 -1.420597 -9.772031 3.172528 -6.629262 0.000000 0.000000 0.000000 5.837799 9.071235 -0.701534 0.000000 0.000000 0.000000 4.147078 -1.671956 3.065088 2.040741 -3.016033 1.391133 0.000000 0.000000 0.000000 2.006032 -2.989534 1.398626 -1.783878 0.623776 -0.927523 0.000000 0.000000 0.000000 2.006032 -2.989534 1.398626 0.068472 1.355724 -0.866198 -25.917125 -0.435044 -62.080675 -179.999732 -72.913970 -179.999759 0.000000 0.000000 0.000000 2.006032 -2.989534 1.398626 0.210353 -5.995287 10.576177 -27.995665 7.628509 54.628755 -179.999964 66.269145 179.999950 0.000000 0.000000 0.000000 
2.083131 86.023994 3.827360 0.000000 0.000000 0.000000 5.074456 10.710049 -0.466023 -1.696396 7.440748 6.505027 33.424521 1.122487 8.774239 22.909098 -2.306868 -4.133549 0.000000 0.000000 0.000000 5.074456 10.710049 -0.466023 -52.528758 -2.425064 -4.286856 55.406751 -7.923230 -1.938102 -5.430875 2.760908 -5.115164 0.000000 0.000000 0.000000 5.074456 10.710049 -0.466023 0.000000 0.000000 0.000000 5.088539 -1.471599 3.627639 1.834222 -2.865892 1.149756 0.000000 0.000000 0.000000 1.790646 -2.826319 1.178409 -1.541981 0.536358 -1.096274 0.000000 0.000000 0.000000 1.790646 -2.826319 1.178409 0.323204 -0.389092 -0.974712 -30.264271 -3.959359 -61.559962 -179.999459 -75.754379 -179.999445 0.000000 0.000000 0.000000 1.790646 -2.826319 1.178409 0.202858 -4.837821 9.589672 -31.403635 8.717715 53.789570 -179.999964 66.971378 179.999950 0.000000 0.000000 0.000000 
2.307547 87.122566 3.532177 0.000000 0.000000 0.000000 4.285998 12.204993 -0.538795 -3.758043 7.206761 5.143803 28.292997 2.456664 5.537558 41.111595 0.000760 5.101372 0.000000 0.000000 0.000000 4.285998 12.204993 -0.538795 -50.956042 -2.027432 -4.636512 52.662801 -10.126282 -2.551594 -0.884796 2.436466 -3.318946 0.000000 0.000000 0.000000 4.285998 12.204993 -0.538795 0.000000 0.000000 0.000000 5.847716 -1.197950 4.384619 1.949363 -2.659792 0.899520 0.000000 0.000000 0.000000 1.896969 -2.616143 0.938718 -1.325991 0.436883 -1.225731 0.000000 0.000000 0.000000 1.896969 -2.616143 0.938718 0.568133 -2.178353 -0.868056 -35.106698 -7.404373 -61.207060 -179.998434 -78.716550 -179.998475 0.000000 0.000000 0.000000 1.896969 -2.616143 0.938718 0.207307 -3.936309 8.797185 -35.419134 9.963633 52.813427 179.999991 68.060827 -179.999991 0.000000 0.000000 0.000000 
2.558199 87.858009 3.324894 0.000000 0.000000 0.000000 3.557335 13.365516 -0.677817 -9.846209 6.075970 5.751240 35.178261 3.522766 4.445010 47.990555 0.226828 4.335982 0.000000 0.000000 0.000000 3.557335 13.365516 -0.677817 -50.048075 -1.556065 -4.982648 50.777675 -10.486389 -3.167413 4.265723 -0.124357 -0.678030 0.000000 0.000000 0.000000 3.557335 13.365516 -0.677817 0.000000 0.000000 0.000000 6.338094 -0.825545 5.059013 2.327362 -2.380167 0.628729 0.000000 0.000000 0.000000 2.267408 -2.341179 0.670473 -1.134485 0.333343 -1.311656 0.000000 0.000000 0.000000 2.267408 -2.341179 0.670473 0.811375 -3.890134 -0.123777 -40.255861 -10.483778 -61.301672 179.998407 -81.754257 179.998379 0.000000 0.000000 0.000000 2.267408 -2.341179 0.670473 0.181353 -3.613129 8.002371 -39.833872 11.582496 52.229425 -179.999786 69.772049 179.999773 0.000000 0.000000 0.000000 
2.635168 88.464211 3.392859 0.000000 0.000000 0.000000 2.994794 14.069266 -0.760473 -16.288741 5.424190 6.303348 43.824027 3.894986 3.244427 51.310744 -0.011010 3.069192 0.000000 0.000000 0.000000 2.994794 14.069266 -0.760473 -49.377866 -0.926957 -5.809904 48.788345 -9.947321 -3.558866 10.776515 -2.155383 3.717537 0.000000 0.000000 0.000000 2.994794 14.069266 -0.760473 0.000000 0.000002 0.000000 6.457491 -0.404400 5.422814 2.978382 -2.041430 0.410065 0.000000 0.000000 0.000000 2.915021 -2.015022 0.447750 -0.972901 0.242374 -1.370255 0.000000 0.000000 0.000000 2.915021 -2.015022 0.447750 1.014105 -5.352208 0.544285 -45.652233 -13.589406 -61.251538 -179.999814 -84.906573 -179.999814 0.000000 0.000000 0.000000 2.915021 -2.015022 0.447750 0.089339 -4.052606 7.037430 -44.633589 13.796000 52.404756 -179.999609 72.352535 179.999595 0.000000 0.000000 0.000000 
2.533461 88.979446 3.698086 0.000000 0.000000 0.000000 2.636229 14.276201 -0.783395 -22.913441 5.319386 6.892999 52.903285 4.058608 1.928632 52.360114 -0.244192 2.207749 0.000000 0.000000 0.000000 2.636229 14.276201 -0.783395 -48.476342 -0.313961 -7.149601 45.489757 -8.042082 -3.458905 18.911805 -1.833128 9.150714 0.000000 0.000000 0.000000 2.636229 14.276201 -0.783395 0.000000 0.000001 0.000000 6.337867 0.028974 5.370413 3.745005 -1.689813 0.364091 0.000000 0.000000 0.000000 3.684105 -1.674812 0.398505 -0.820738 0.187157 -1.431013 0.000000 0.000000 0.000000 3.684105 -1.674812 0.398505 1.142590 -6.420495 1.231495 -51.047673 -16.447681 -61.330598 179.998243 -88.143646 179.998134 0.000000 0.000000 0.000000 3.684105 -1.674812 0.398505 -0.100660 -5.239888 5.649981 -49.857826 16.474054 53.671442 -179.999691 75.959026 179.999691 0.000000 0.000000 0.000000 
2.453443 89.751274 3.893818 0.000000 0.000000 0.000000 2.401247 14.025404 -0.953957 -29.424462 5.711909 7.563559 60.912781 4.451486 0.712846 52.723518 -0.255908 2.078894 0.000000 0.000000 0.000000 2.401247 14.025404 -0.953957 -47.171165 -1.310768 -6.339224 42.851596 -8.624395 -2.677450 21.067978 -0.260545 6.687935 0.000000 0.000000 0.000000 2.401247 14.025404 -0.953957 0.000000 0.000000 0.000000 6.238337 0.492735 5.100010 4.448039 -1.372282 0.550578 0.000000 0.000000 0.000000 4.392854 -1.358246 0.586388 -0.642589 0.181483 -1.510347 0.000000 0.000000 0.000000 4.392854 -1.358246 0.586388 1.219305 -6.840145 2.759383 -56.339615 -18.196310 -62.362701 0.001931 -88.669837 0.001988 0.000000 0.000000 0.000000 4.392854 -1.358246 0.586388 -0.418006 -6.889079 3.645291 -55.571382 19.095899 56.081297 179.999240 80.569267 -179.999267 0.000000 0.000000 0.000000 
2.295930 90.315742 4.191807 0.000000 0.000000 0.000000 2.119538 13.458243 -1.044652 -35.834768 6.371729 8.356567 68.524802 4.881470 -0.234342 52.411648 -0.194228 2.225174 0.000000 0.000000 0.000000 2.119538 13.458243 -1.044652 -46.271677 -2.365515 -5.064289 40.489833 -8.484352 -1.740994 23.175523 2.671955 3.016610 0.000000 0.000000 0.000000 2.119538 13.458243 -1.044652 0.000000 0.000001 0.000000 6.406724 0.925431 4.503893 4.974053 -1.118619 0.911940 0.000000 0.000000 0.000000 4.923924 -1.090867 0.952335 -0.391206 0.223209 -1.595014 0.000000 0.000000 0.000000 4.923924 -1.090867 0.952335 1.210745 -6.589732 4.437817 -61.607193 -19.155870 -63.892533 0.000338 -85.603949 0.000334 0.000000 0.000000 0.000000 4.923924 -1.090867 0.952335 -0.839727 -8.486396 1.020948 -61.736523 20.971029 59.278727 179.999035 85.975177 -179.999117 0.000000 0.000000 0.000000 
2.092998 90.621185 4.553459 0.000000 0.000000 0.000000 1.619086 12.737620 -1.041888 -42.019860 7.132088 9.200360 75.636955 5.366907 -0.819027 51.903304 -0.077084 2.566344 0.000000 0.000000 0.000000 1.619086 12.737620 -1.041888 -45.507880 -3.384534 -2.728874 38.931894 -4.113113 -1.523066 24.803009 2.404506 0.740999 0.000000 0.000000 0.000000 1.619086 12.737620 -1.041888 0.000000 0.000001 0.000000 7.070065 1.289044 3.725814 5.162423 -0.950533 1.327612 0.000000 0.000000 0.000000 5.114985 -0.892413 1.373416 -0.009189 0.301572 -1.652898 0.000000 0.000000 0.000000 5.114985 -0.892413 1.373416 1.174587 -6.511878 5.488877 -66.383387 -19.791059 -64.668627 0.000617 -82.740932 0.000598 0.000000 0.000000 0.000000 5.114985 -0.892413 1.373416 -1.198276 -9.446105 -1.192411 -68.157631 22.444246 62.195095 0.001332 87.962311 -0.001309 0.000000 0.000000 0.000000 
